<svg id="ff6577ae-58db-4ee1-984e-fec9cb963c2d" data-name="Capa 1" xmlns="http://www.w3.org/2000/svg" viewBox="0 0 400 400"><defs><style>.fd9401e4-b82e-4bbf-960b-d73cfdf60171{fill:#161616;}.e88fb387-7f0e-4a5a-aef4-a728496e89b3{fill:#fff600;}</style></defs><rect class="fd9401e4-b82e-4bbf-960b-d73cfdf60171" x="28.8" y="26.7" width="342.4" height="342.43" rx="38.3"/><path class="e88fb387-7f0e-4a5a-aef4-a728496e89b3" d="M162.8,98.8c74.8-6.6,115.8,58,115.8,58l23.5-12.2C224.1,49.7,162.8,98.8,162.8,98.8Z"/><path class="e88fb387-7f0e-4a5a-aef4-a728496e89b3" d="M278.6,156.8l-23.4,12.1c48.8,72.6,8.1,113.9,8.1,113.9,24.5-9.9,40.5-26.1,40.5-60.2S278.6,156.8,278.6,156.8Z"/><path class="e88fb387-7f0e-4a5a-aef4-a728496e89b3" d="M140.3,111.8c-86.5,27.1-18.9,126-18.9,126l23.3-12s-51.7-74.8,8-93.1c0,0-20.5,33.2,14.7,81.5l23.1-11.9s-24.6-28.2-19.8-67.8c0,0,39.2,10.4,61.4,46.3l23.1-11.9S212.9,101.2,140.3,111.8Z"/><path class="e88fb387-7f0e-4a5a-aef4-a728496e89b3" d="M229.3,260.6c-34.4-6.9-61.9-46.4-61.9-46.4l-22.7,11.6c28.2,48,78.1,49.9,78.1,49.9-49.2,37.4-101.4-37.9-101.4-37.9L98.1,250c1.8,5.6,74.3,93.8,139.1,45.2a41.3,41.3,0,0,0,13.2-16.9c20.6-48.9-18.3-97.5-18.3-97.5l-23.2,11.8C237.5,230.8,229.3,260.6,229.3,260.6Z"/></svg>