<?xml version="1.0" encoding="UTF-8" standalone="no" ?>
<!DOCTYPE svg PUBLIC "-//W3C//DTD SVG 1.1//EN" "http://www.w3.org/Graphics/SVG/1.1/DTD/svg11.dtd">
<svg xmlns="http://www.w3.org/2000/svg" xmlns:xlink="http://www.w3.org/1999/xlink" version="1.1" width="1080" height="300" viewBox="0 0 1080 300" xml:space="preserve">
<desc>Created with Fabric.js 5.2.4</desc>
<defs>
</defs>
<g transform="matrix(1 0 0 1 540 150)" id="7a0f4821-a64b-4503-8593-0e31bb6bad88"  >
<rect style="stroke: none; stroke-width: 1; stroke-dasharray: none; stroke-linecap: butt; stroke-dashoffset: 0; stroke-linejoin: miter; stroke-miterlimit: 4; fill: rgb(255,255,255); fill-rule: nonzero; opacity: 1; visibility: hidden;" vector-effect="non-scaling-stroke"  x="-540" y="-150" rx="0" ry="0" width="1080" height="300" />
</g>
<g transform="matrix(Infinity NaN NaN Infinity 0 0)" id="3cf024cd-66a2-4299-8188-8f51ed22b98a"  >
</g>
<g transform="matrix(1.74 0 0 1.74 540 150)"  >
<g style="" vector-effect="non-scaling-stroke"   >
		<g transform="matrix(1 0 0 1 -21.1 19.15)"  >
<path style="stroke: none; stroke-width: 1; stroke-dasharray: none; stroke-linecap: butt; stroke-dashoffset: 0; stroke-linejoin: miter; stroke-miterlimit: 4; fill: rgb(255,255,255); fill-rule: nonzero; opacity: 1;" vector-effect="non-scaling-stroke"  transform=" translate(-395.25, -222.1)" d="M 334.8 289.2 L 334.8 202.5 C 334.8 172.2 351.7 155 384.6 155 L 402.1 155 C 433 155 455.70000000000005 173.7 455.70000000000005 206.8 C 455.70000000000005 236.5 437.40000000000003 255.5 401.90000000000003 255.5 C 393.3 255.5 384.6 254.5 377.8 252.7 L 377.8 222.6 C 384.6 224.4 392.40000000000003 225.4 398.3 225.4 C 413.7 225.4 422.40000000000003 220.4 422.40000000000003 205.9 C 422.40000000000003 191.70000000000002 413.8 185.6 402.1 185.6 L 385.40000000000003 185.6 C 374.00000000000006 185.6 368.1 191.4 368.1 202.5 L 368.1 289.2 L 334.8 289.2 z" stroke-linecap="round" />
</g>
		<g transform="matrix(1 0 0 1 71.55 -17.5)"  >
<path style="stroke: none; stroke-width: 1; stroke-dasharray: none; stroke-linecap: butt; stroke-dashoffset: 0; stroke-linejoin: miter; stroke-miterlimit: 4; fill: rgb(255,255,255); fill-rule: nonzero; opacity: 1;" vector-effect="non-scaling-stroke"  transform=" translate(-487.9, -185.45)" d="M 485.7 145.2 C 476.9 145.2 470.5 139.6 470.5 130.6 C 470.5 122 476.9 116.39999999999999 485.7 116.39999999999999 L 490.3 116.39999999999999 C 499.1 116.39999999999999 505.3 121.99999999999999 505.3 130.6 C 505.3 139.6 499.1 145.2 490.3 145.2 L 485.7 145.2 z M 471.2 254.5 L 471.2 155 L 504.5 155 L 504.5 254.5 L 471.2 254.5 z" stroke-linecap="round" />
</g>
		<g transform="matrix(1 0 0 1 143.35 -12.35)"  >
<path style="stroke: none; stroke-width: 1; stroke-dasharray: none; stroke-linecap: butt; stroke-dashoffset: 0; stroke-linejoin: miter; stroke-miterlimit: 4; fill: rgb(255,255,255); fill-rule: nonzero; opacity: 1;" vector-effect="non-scaling-stroke"  transform=" translate(-559.7, -190.6)" d="M 559.5 254.5 C 535.6 254.5 523.2 241.1 523.2 218 L 523.2 126.7 L 556.3000000000001 126.7 L 556.3000000000001 155 L 596.2 155 L 596.2 182.5 L 556.3000000000001 182.5 L 556.3000000000001 215.4 C 556.3000000000001 223.20000000000002 560.1 227.20000000000002 568.1 227.20000000000002 L 595.2 227.20000000000002 L 595.2 254.50000000000003 L 559.5 254.50000000000003 z" stroke-linecap="round" />
</g>
		<g transform="matrix(1 0 0 1 246.9 1.8)"  >
<path style="stroke: none; stroke-width: 1; stroke-dasharray: none; stroke-linecap: butt; stroke-dashoffset: 0; stroke-linejoin: miter; stroke-miterlimit: 4; fill: rgb(255,255,255); fill-rule: nonzero; opacity: 1;" vector-effect="non-scaling-stroke"  transform=" translate(-663.25, -204.75)" d="M 609.3 254.5 L 609.3 227.2 L 679.5 227.2 C 683.9 227.2 686.5 225 686.5 220.79999999999998 C 686.5 216.99999999999997 684.3 214.6 679.5 214.6 L 640.4 214.6 C 620.1 214.6 608.1 201.6 608.1 184.7 C 608.1 166.6 621.9 155 640.2 155 L 713.4000000000001 155 L 713.4000000000001 182.3 L 646.4000000000001 182.3 C 642.2 182.3 639.6000000000001 184.5 639.6000000000001 188.5 C 639.6000000000001 192.5 641.8000000000002 194.7 646.4000000000001 194.7 L 686.3000000000001 194.7 C 706.6 194.7 718.4000000000001 207.29999999999998 718.4000000000001 224.39999999999998 C 718.4000000000001 242.7 704.8000000000001 254.49999999999997 686.3000000000001 254.49999999999997 L 609.3 254.49999999999997 z" stroke-linecap="round" />
</g>
		<g transform="matrix(1 0 0 1 -196.65 -59.11)"  >
<path style="stroke: none; stroke-width: 1; stroke-dasharray: none; stroke-linecap: butt; stroke-dashoffset: 0; stroke-linejoin: miter; stroke-miterlimit: 4; fill: rgb(255,246,0); fill-rule: nonzero; opacity: 1;" vector-effect="non-scaling-stroke"  transform=" translate(-219.7, -143.84)" d="M 165.8 126.3 C 223.70000000000002 121.2 255.4 171.2 255.4 171.2 L 273.6 161.79999999999998 C 213.2 88.3 165.8 126.3 165.8 126.3 z" stroke-linecap="round" />
</g>
		<g transform="matrix(1 0 0 1 -160.25 17)"  >
<path style="stroke: none; stroke-width: 1; stroke-dasharray: none; stroke-linecap: butt; stroke-dashoffset: 0; stroke-linejoin: miter; stroke-miterlimit: 4; fill: rgb(255,246,0); fill-rule: nonzero; opacity: 1;" vector-effect="non-scaling-stroke"  transform=" translate(-256.1, -219.95)" d="M 255.4 171.2 L 237.3 180.5 C 275 236.7 243.60000000000002 268.7 243.60000000000002 268.7 C 262.5 261 274.90000000000003 248.5 274.90000000000003 222.1 C 274.90000000000003 195.7 255.4 171.2 255.4 171.2 z" stroke-linecap="round" />
</g>
		<g transform="matrix(1 0 0 1 -240.55 -18.25)"  >
<path style="stroke: none; stroke-width: 1; stroke-dasharray: none; stroke-linecap: butt; stroke-dashoffset: 0; stroke-linejoin: miter; stroke-miterlimit: 4; fill: rgb(255,246,0); fill-rule: nonzero; opacity: 1;" vector-effect="non-scaling-stroke"  transform=" translate(-175.8, -184.7)" d="M 148.4 136.4 C 81.4 157.3 133.8 233.9 133.8 233.9 L 151.8 224.6 C 151.8 224.6 111.80000000000001 166.7 158 152.5 C 158 152.5 142.1 178.2 169.3 215.6 L 187.20000000000002 206.4 C 187.20000000000002 206.4 168.20000000000002 184.6 171.9 153.9 C 171.9 153.9 202.3 162 219.4 189.8 L 237.3 180.5 C 237.3 180.5 204.5 128.1 148.4 136.4 z" stroke-linecap="round" />
</g>
		<g transform="matrix(1 0 0 1 -239.38 36.7)"  >
<path style="stroke: none; stroke-width: 1; stroke-dasharray: none; stroke-linecap: butt; stroke-dashoffset: 0; stroke-linejoin: miter; stroke-miterlimit: 4; fill: rgb(255,246,0); fill-rule: nonzero; opacity: 1;" vector-effect="non-scaling-stroke"  transform=" translate(-176.97, -239.65)" d="M 217.3 251.5 C 190.60000000000002 246.1 169.3 215.6 169.3 215.6 L 151.8 224.6 C 173.60000000000002 261.7 212.20000000000002 263.1 212.20000000000002 263.1 C 174.20000000000002 292.1 133.8 233.90000000000003 133.8 233.90000000000003 L 115.70000000000002 243.30000000000004 C 117.10000000000002 247.60000000000005 173.20000000000002 315.90000000000003 223.3 278.20000000000005 C 227.8 274.90000000000003 231.4 270.40000000000003 233.60000000000002 265.20000000000005 C 249.50000000000003 227.40000000000003 219.40000000000003 189.80000000000004 219.40000000000003 189.80000000000004 L 201.40000000000003 198.90000000000003 C 223.6 228.4 217.3 251.5 217.3 251.5 z" stroke-linecap="round" />
</g>
</g>
</g>
</svg>